# xmcd CD database file
#
# Track frame offsets:
#	150
#	10193
#	23937
#	32251
#	48008
#	60471
#	75280
#	85589
#	100253
#	110464
#	119939
#
# Disc length: 1736 seconds
#
# Revision: 0
# Processed by: cddbd v1.5.2PL0 Copyright (c) Steve Scherf et al.
# Submitted via: CdAid (MTCDDB.DLL V2003.12.21)
#
DISCID=7506c60b
DTITLE=Miro Silveira - Descobrindo a Capital
DYEAR=1995
DGENRE=Folk
TTITLE0=Passeando na Cidade
TTITLE1=Na Avenida Angélica
TTITLE2=No Bairro da Mooca
TTITLE3=Na Vila Mariana
TTITLE4="Seu" Guarda
TTITLE5=Na Rua Augusta
TTITLE6=Deus Que Me Livre
TTITLE7=Guardador de Carros
TTITLE8=Metrô da Vila Mariana
TTITLE9=Samba da Internet
TTITLE10=Samba da Enfermeira
EXTD=ID3G:  80 YEAR: 1995
EXTT0=
EXTT1=
EXTT2=
EXTT3=
EXTT4=
EXTT5=
EXTT6=
EXTT7=
EXTT8=
EXTT9=
EXTT10=
PLAYORDER=
